<svg width="21" height="21" viewBox="0 0 21 21" fill="none" xmlns="http://www.w3.org/2000/svg">
<g clip-path="url(#clip0_597_5519)">
<path d="M18.75 0.75H2.25C1.42157 0.75 0.75 1.42157 0.75 2.25V18.75C0.75 19.5784 1.42157 20.25 2.25 20.25H18.75C19.5784 20.25 20.25 19.5784 20.25 18.75V2.25C20.25 1.42157 19.5784 0.75 18.75 0.75Z" stroke="#000001" stroke-width="2" stroke-linecap="round" stroke-linejoin="round"/>
<path d="M7.84497 13.845V7.36497C7.84553 7.25655 7.87475 7.15021 7.92966 7.05672C7.98457 6.96323 8.06322 6.88592 8.15763 6.83262C8.25205 6.77932 8.35888 6.75193 8.46729 6.75322C8.57571 6.75451 8.68185 6.78444 8.77497 6.83997L14.325 10.065C14.4184 10.119 14.496 10.1966 14.5499 10.2901C14.6039 10.3835 14.6323 10.4896 14.6323 10.5975C14.6323 10.7054 14.6039 10.8114 14.5499 10.9049C14.496 10.9984 14.4184 11.076 14.325 11.13L8.77497 14.37C8.68185 14.4255 8.57571 14.4554 8.46729 14.4567C8.35888 14.458 8.25205 14.4306 8.15763 14.3773C8.06322 14.324 7.98457 14.2467 7.92966 14.1532C7.87475 14.0597 7.84553 13.9534 7.84497 13.845V13.845Z" stroke="#000001" stroke-width="2" stroke-linecap="round" stroke-linejoin="round"/>
</g>
<defs>
<clipPath id="clip0_597_5519">
<rect width="21" height="21" fill="white"/>
</clipPath>
</defs>
</svg>
