<svg width="63" height="25" viewBox="0 0 63 25" fill="none" xmlns="http://www.w3.org/2000/svg">
<path d="M7.1999 7.34285H15.5999M7.1999 12.1428H11.9999M11.6869 16.7341L6.67816 21.7428V16.7341H4.7999C3.47442 16.7341 2.3999 15.6596 2.3999 14.3341V4.94285C2.3999 3.61736 3.47442 2.54285 4.7999 2.54285H19.1999C20.5254 2.54285 21.5999 3.61736 21.5999 4.94285V14.3341C21.5999 15.6596 20.5254 16.7341 19.1999 16.7341H11.6869Z" stroke="black" stroke-width="2" stroke-linecap="round" stroke-linejoin="round"/>
<path d="M40.7143 10.4286H42.4286C42.6559 10.4286 42.8739 10.5189 43.0347 10.6796C43.1954 10.8404 43.2857 11.0584 43.2857 11.2857V15.5714C43.2857 15.7988 43.1954 16.0168 43.0347 16.1775C42.8739 16.3383 42.6559 16.4286 42.4286 16.4286H40.7143C40.2596 16.4286 39.8236 16.248 39.5021 15.9265C39.1806 15.605 39 15.169 39 14.7143V12.1429C39 11.6882 39.1806 11.2522 39.5021 10.9307C39.8236 10.6092 40.2596 10.4286 40.7143 10.4286V10.4286Z" stroke="#000001" stroke-width="2" stroke-linecap="round" stroke-linejoin="round"/>
<path d="M59.5714 16.4286H57.8571C57.6297 16.4286 57.4117 16.3383 57.251 16.1775C57.0902 16.0168 56.9999 15.7988 56.9999 15.5714V11.2857C56.9999 11.0584 57.0902 10.8404 57.251 10.6796C57.4117 10.5189 57.6297 10.4286 57.8571 10.4286H59.5714C60.026 10.4286 60.4621 10.6092 60.7835 10.9307C61.105 11.2522 61.2856 11.6882 61.2856 12.1429V14.7143C61.2856 15.169 61.105 15.605 60.7835 15.9265C60.4621 16.248 60.026 16.4286 59.5714 16.4286V16.4286Z" stroke="#000001" stroke-width="2" stroke-linecap="round" stroke-linejoin="round"/>
<path d="M54.4285 21.1429C55.3378 21.1429 56.2099 20.7817 56.8528 20.1387C57.4958 19.4957 57.857 18.6236 57.857 17.7143V16.4286" stroke="#000001" stroke-width="2" stroke-linecap="round" stroke-linejoin="round"/>
<path d="M52.2858 19C52.8541 19 53.3992 19.2258 53.801 19.6276C54.2029 20.0295 54.4287 20.5745 54.4287 21.1429C54.4287 21.7112 54.2029 22.2562 53.801 22.6581C53.3992 23.0599 52.8541 23.2857 52.2858 23.2857H49.7144C49.1461 23.2857 48.601 23.0599 48.1992 22.6581C47.7973 22.2562 47.5715 21.7112 47.5715 21.1429C47.5715 20.5745 47.7973 20.0295 48.1992 19.6276C48.601 19.2258 49.1461 19 49.7144 19H52.2858Z" stroke="#000001" stroke-width="2" stroke-linecap="round" stroke-linejoin="round"/>
<path d="M42.4285 10.4286V8.71429C42.4285 6.66833 43.2412 4.70617 44.6879 3.25946C46.1346 1.81275 48.0968 1 50.1428 1C52.1887 1 54.1509 1.81275 55.5976 3.25946C57.0443 4.70617 57.857 6.66833 57.857 8.71429V10.4286" stroke="#000001" stroke-width="2" stroke-linecap="round" stroke-linejoin="round"/>
</svg>
