<svg width="40" height="40" viewBox="0 0 40 40" fill="none" xmlns="http://www.w3.org/2000/svg">
<circle cx="20" cy="20" r="20" fill="white"/>
<g clip-path="url(#clip0_582_11466)">
<path d="M28.75 10.75H12.25C11.4216 10.75 10.75 11.4216 10.75 12.25V28.75C10.75 29.5784 11.4216 30.25 12.25 30.25H28.75C29.5784 30.25 30.25 29.5784 30.25 28.75V12.25C30.25 11.4216 29.5784 10.75 28.75 10.75Z" stroke="#6F42EE" stroke-width="2" stroke-linecap="round" stroke-linejoin="round"/>
<path d="M17.845 23.845V17.365C17.8455 17.2566 17.8748 17.1502 17.9297 17.0567C17.9846 16.9632 18.0632 16.8859 18.1576 16.8326C18.252 16.7793 18.3589 16.7519 18.4673 16.7532C18.5757 16.7545 18.6819 16.7844 18.775 16.84L24.325 20.065C24.4184 20.119 24.496 20.1966 24.5499 20.2901C24.6039 20.3835 24.6323 20.4896 24.6323 20.5975C24.6323 20.7054 24.6039 20.8114 24.5499 20.9049C24.496 20.9984 24.4184 21.076 24.325 21.13L18.775 24.37C18.6819 24.4255 18.5757 24.4554 18.4673 24.4567C18.3589 24.458 18.252 24.4306 18.1576 24.3773C18.0632 24.324 17.9846 24.2467 17.9297 24.1532C17.8748 24.0597 17.8455 23.9534 17.845 23.845V23.845Z" stroke="#6F42EE" stroke-width="2" stroke-linecap="round" stroke-linejoin="round"/>
</g>
<defs>
<clipPath id="clip0_582_11466">
<rect width="21" height="21" fill="white" transform="translate(10 10)"/>
</clipPath>
</defs>
</svg>
