<svg width="59" height="59" viewBox="0 0 59 59" fill="none" xmlns="http://www.w3.org/2000/svg">
<circle cx="29.5" cy="29.5" r="29.5" fill="#EAEAEB"/>
<path d="M17.2651 27.4581H19.5302C19.8305 27.4581 20.1186 27.5774 20.331 27.7898C20.5434 28.0022 20.6627 28.2902 20.6627 28.5906V34.2533C20.6627 34.5537 20.5434 34.8417 20.331 35.0541C20.1186 35.2665 19.8305 35.3858 19.5302 35.3858H17.2651C16.6643 35.3858 16.0882 35.1472 15.6634 34.7224C15.2386 34.2976 15 33.7215 15 33.1208V29.7231C15 29.1224 15.2386 28.5463 15.6634 28.1215C16.0882 27.6967 16.6643 27.4581 17.2651 27.4581V27.4581Z" stroke="#696A6F" stroke-width="2.8" stroke-linecap="round" stroke-linejoin="round"/>
<path d="M42.181 35.3856H39.9159C39.6155 35.3856 39.3275 35.2663 39.1151 35.0539C38.9027 34.8415 38.7834 34.5534 38.7834 34.2531V28.5904C38.7834 28.29 38.9027 28.002 39.1151 27.7896C39.3275 27.5772 39.6155 27.4579 39.9159 27.4579H42.181C42.7817 27.4579 43.3578 27.6965 43.7826 28.1213C44.2074 28.5461 44.446 29.1222 44.446 29.7229V33.1205C44.446 33.7213 44.2074 34.2974 43.7826 34.7222C43.3578 35.147 42.7817 35.3856 42.181 35.3856V35.3856Z" stroke="#696A6F" stroke-width="2.8" stroke-linecap="round" stroke-linejoin="round"/>
<path d="M35.3856 41.6146C36.5871 41.6146 37.7394 41.1373 38.5889 40.2877C39.4385 39.4382 39.9158 38.2859 39.9158 37.0844V35.3856" stroke="#696A6F" stroke-width="2.8" stroke-linecap="round" stroke-linejoin="round"/>
<path d="M32.5546 38.7833C33.3056 38.7833 34.0257 39.0816 34.5567 39.6126C35.0877 40.1436 35.386 40.8638 35.386 41.6147C35.386 42.3656 35.0877 43.0858 34.5567 43.6167C34.0257 44.1477 33.3056 44.446 32.5546 44.446H29.157C28.4061 44.446 27.6859 44.1477 27.155 43.6167C26.624 43.0858 26.3257 42.3656 26.3257 41.6147C26.3257 40.8638 26.624 40.1436 27.155 39.6126C27.6859 39.0816 28.4061 38.7833 29.157 38.7833H32.5546Z" stroke="#696A6F" stroke-width="2.8" stroke-linecap="round" stroke-linejoin="round"/>
<path d="M19.5302 27.4579V25.1928C19.5302 22.4895 20.604 19.8969 22.5156 17.9854C24.4271 16.0739 27.0197 15 29.723 15C32.4263 15 35.0189 16.0739 36.9304 17.9854C38.842 19.8969 39.9158 22.4895 39.9158 25.1928V27.4579" stroke="#696A6F" stroke-width="2.8" stroke-linecap="round" stroke-linejoin="round"/>
</svg>
