<svg width="59" height="59" viewBox="0 0 59 59" fill="none" xmlns="http://www.w3.org/2000/svg">
<circle cx="29.5" cy="29.5" r="29.5" fill="#EAEAEB"/>
<path d="M29.5215 14.5C33.4935 14.5 37.3033 16.08 40.1123 18.8926C42.9213 21.7054 44.4999 25.5208 44.5 29.499C44.5 33.4773 42.9213 37.2926 40.1123 40.1055C37.3033 42.9182 33.4937 44.499 29.5215 44.499H15.5703C15.363 44.5077 15.1576 44.455 14.9805 44.3467C14.8056 44.2398 14.6665 44.0832 14.5791 43.8975C14.5016 43.7084 14.4799 43.5006 14.5186 43.2998C14.5576 43.0972 14.6548 42.9099 14.7988 42.7627L14.7998 42.7637L17.8955 39.6641L18.2158 39.3428L17.9277 38.9922C15.7279 36.3211 14.5309 32.9634 14.5439 29.501V29.499C14.544 25.5208 16.1217 21.7054 18.9307 18.8926C20.3215 17.4998 21.9729 16.3953 23.79 15.6416C25.6071 14.8879 27.5547 14.5 29.5215 14.5ZM34.4346 17.5781C31.6803 16.4379 28.6162 16.2901 25.7646 17.1582C22.9131 18.0264 20.4501 19.8575 18.7959 22.3398C17.1419 24.8221 16.3986 27.8021 16.6924 30.7715C16.9863 33.7407 18.299 36.5161 20.4072 38.625L20.4111 38.6289C20.6072 38.8214 20.7202 39.0833 20.7256 39.3584C20.7245 39.4962 20.6961 39.6329 20.6426 39.7598C20.5886 39.8876 20.51 40.0035 20.4111 40.1006L20.4072 40.1045L18.9678 41.5459L18.1162 42.3984H29.5225C32.5029 42.396 35.3901 41.3588 37.6924 39.4639C39.9946 37.5689 41.5702 34.9338 42.1494 32.0068C42.7286 29.0797 42.2757 26.0419 40.8691 23.4111C39.4625 20.7804 37.1888 18.7184 34.4346 17.5781ZM29.5215 28.4492C29.7992 28.4492 30.0661 28.56 30.2627 28.7568C30.4591 28.9536 30.5693 29.2205 30.5693 29.499V34.1494C30.5693 34.4279 30.4591 34.6948 30.2627 34.8916C30.0661 35.0884 29.7992 35.1992 29.5215 35.1992C29.2439 35.1991 28.9777 35.0883 28.7812 34.8916C28.5848 34.6948 28.4737 34.428 28.4736 34.1494V29.499C28.4737 29.2205 28.5848 28.9536 28.7812 28.7568C28.9777 28.5601 29.2439 28.4493 29.5215 28.4492ZM29.5215 23.7998C29.7991 23.7998 30.0661 23.9097 30.2627 24.1064C30.4593 24.3033 30.5693 24.5709 30.5693 24.8496C30.5693 25.0573 30.5077 25.26 30.3926 25.4326C30.2774 25.6052 30.1141 25.7399 29.9229 25.8193C29.7315 25.8987 29.5205 25.9194 29.3174 25.8789C29.1143 25.8384 28.9278 25.7385 28.7812 25.5918C28.6348 25.4451 28.5346 25.2583 28.4941 25.0547C28.4537 24.8509 28.4743 24.6392 28.5537 24.4473C28.633 24.2556 28.7674 24.0918 28.9395 23.9766C29.1117 23.8613 29.3145 23.7999 29.5215 23.7998Z" fill="#696A6F" stroke="#696A6F"/>
</svg>
