<svg width="59" height="59" viewBox="0 0 59 59" fill="none" xmlns="http://www.w3.org/2000/svg">
<circle cx="29.5" cy="29.5" r="29.5" fill="#EAEAEB"/>
<mask id="path-2-inside-1_582_11451" fill="white">
<path d="M42.4671 30.5229C42.2142 30.24 42.0747 29.8765 42.0747 29.5C42.0747 29.1235 42.2142 28.76 42.4671 28.4771L44.4866 26.2454C44.7091 26.0016 44.8473 25.6948 44.8813 25.369C44.9153 25.0433 44.8434 24.7153 44.6759 24.4322L41.5205 19.0699C41.3547 18.7871 41.1022 18.5629 40.7991 18.4294C40.496 18.2958 40.1577 18.2596 39.8324 18.326L36.8663 18.9149C36.4889 18.9915 36.096 18.9298 35.7617 18.7414C35.4275 18.5529 35.175 18.2508 35.052 17.8921L34.0896 15.056C33.9837 14.7481 33.7821 14.4808 33.5131 14.2917C33.2442 14.1026 32.9215 14.0013 32.5907 14.0021H26.2799C25.9359 13.9845 25.5954 14.0779 25.3106 14.2682C25.0257 14.4585 24.812 14.7352 24.7022 15.056L23.8187 17.8921C23.6957 18.2508 23.4432 18.5529 23.1089 18.7414C22.7747 18.9298 22.3818 18.9915 22.0044 18.9149L18.9594 18.326C18.6511 18.2832 18.3367 18.331 18.0559 18.4634C17.7752 18.5958 17.5406 18.8068 17.3817 19.0699L14.2263 24.4322C14.0546 24.7122 13.9774 25.0383 14.0057 25.364C14.0341 25.6896 14.1665 25.9982 14.3841 26.2454L16.3878 28.4771C16.6407 28.76 16.7802 29.1235 16.7802 29.5C16.7802 29.8765 16.6407 30.24 16.3878 30.5229L14.3841 32.7546C14.1665 33.0018 14.0341 33.3104 14.0057 33.636C13.9774 33.9617 14.0546 34.2878 14.2263 34.5678L17.3817 39.9301C17.5475 40.2129 17.8 40.4371 18.1031 40.5706C18.4063 40.7042 18.7446 40.7404 19.0699 40.674L22.0359 40.0851C22.4133 40.0085 22.8063 40.0702 23.1405 40.2586C23.4748 40.4471 23.7272 40.7492 23.8503 41.1079L24.8127 43.944C24.9225 44.2648 25.1361 44.5415 25.421 44.7318C25.7059 44.9221 26.0463 45.0155 26.3904 44.9979H32.7012C33.0319 44.9987 33.3546 44.8974 33.6236 44.7083C33.8925 44.5192 34.0942 44.2519 34.2 43.944L35.1624 41.1079C35.2855 40.7492 35.5379 40.4471 35.8722 40.2586C36.2064 40.0702 36.5993 40.0085 36.9767 40.0851L39.9428 40.674C40.2681 40.7404 40.6064 40.7042 40.9096 40.5706C41.2127 40.4371 41.4652 40.2129 41.631 39.9301L44.7864 34.5678C44.9539 34.2847 45.0258 33.9567 44.9918 33.631C44.9578 33.3052 44.8196 32.9984 44.597 32.7546L42.4671 30.5229ZM40.1164 32.5996L41.3785 33.9944L39.3591 37.4349L37.4974 37.063C36.3611 36.8348 35.1791 37.0244 34.1757 37.5958C33.1723 38.1672 32.4174 39.0805 32.0543 40.1625L31.4548 41.8983H27.4159L26.8479 40.1316C26.4848 39.0496 25.7299 38.1362 24.7266 37.5648C23.7232 36.9934 22.5411 36.8038 21.4049 37.032L19.5432 37.4039L17.4922 33.9789L18.7543 32.5841C19.5305 31.7317 19.9596 30.6281 19.9596 29.4845C19.9596 28.3409 19.5305 27.2373 18.7543 26.3849L17.4922 24.9901L19.5116 21.5806L21.3733 21.9525C22.5096 22.1807 23.6916 21.9911 24.695 21.4197C25.6984 20.8483 26.4533 19.9349 26.8164 18.8529L27.4159 17.1017H31.4548L32.0543 18.8684C32.4174 19.9504 33.1723 20.8638 34.1757 21.4352C35.1791 22.0066 36.3611 22.1962 37.4974 21.968L39.3591 21.5961L41.3785 25.0366L40.1164 26.4314C39.3489 27.2819 38.9252 28.379 38.9252 29.5155C38.9252 30.652 39.3489 31.7491 40.1164 32.5996ZM29.4353 23.3008C28.1872 23.3008 26.9671 23.6644 25.9293 24.3456C24.8914 25.0268 24.0826 25.9949 23.6049 27.1277C23.1273 28.2604 23.0023 29.5069 23.2458 30.7094C23.4893 31.9119 24.0904 33.0165 24.9729 33.8835C25.8555 34.7504 26.98 35.3408 28.2042 35.58C29.4283 35.8192 30.6972 35.6965 31.8504 35.2273C33.0035 34.7581 33.9891 33.9635 34.6826 32.9441C35.376 31.9246 35.7461 30.7261 35.7461 29.5C35.7461 27.8559 35.0813 26.2791 33.8978 25.1165C32.7142 23.954 31.1091 23.3008 29.4353 23.3008ZM29.4353 32.5996C28.8113 32.5996 28.2012 32.4178 27.6823 32.0772C27.1634 31.7366 26.759 31.2525 26.5201 30.6862C26.2813 30.1198 26.2188 29.4966 26.3406 28.8953C26.4623 28.294 26.7629 27.7418 27.2041 27.3083C27.6454 26.8748 28.2077 26.5796 28.8198 26.46C29.4318 26.3404 30.0663 26.4018 30.6429 26.6364C31.2194 26.871 31.7122 27.2682 32.059 27.778C32.4057 28.2877 32.5907 28.887 32.5907 29.5C32.5907 30.3221 32.2583 31.1104 31.6665 31.6917C31.0748 32.273 30.2722 32.5996 29.4353 32.5996Z"/>
</mask>
<path d="M42.4671 30.5229C42.2142 30.24 42.0747 29.8765 42.0747 29.5C42.0747 29.1235 42.2142 28.76 42.4671 28.4771L44.4866 26.2454C44.7091 26.0016 44.8473 25.6948 44.8813 25.369C44.9153 25.0433 44.8434 24.7153 44.6759 24.4322L41.5205 19.0699C41.3547 18.7871 41.1022 18.5629 40.7991 18.4294C40.496 18.2958 40.1577 18.2596 39.8324 18.326L36.8663 18.9149C36.4889 18.9915 36.096 18.9298 35.7617 18.7414C35.4275 18.5529 35.175 18.2508 35.052 17.8921L34.0896 15.056C33.9837 14.7481 33.7821 14.4808 33.5131 14.2917C33.2442 14.1026 32.9215 14.0013 32.5907 14.0021H26.2799C25.9359 13.9845 25.5954 14.0779 25.3106 14.2682C25.0257 14.4585 24.812 14.7352 24.7022 15.056L23.8187 17.8921C23.6957 18.2508 23.4432 18.5529 23.1089 18.7414C22.7747 18.9298 22.3818 18.9915 22.0044 18.9149L18.9594 18.326C18.6511 18.2832 18.3367 18.331 18.0559 18.4634C17.7752 18.5958 17.5406 18.8068 17.3817 19.0699L14.2263 24.4322C14.0546 24.7122 13.9774 25.0383 14.0057 25.364C14.0341 25.6896 14.1665 25.9982 14.3841 26.2454L16.3878 28.4771C16.6407 28.76 16.7802 29.1235 16.7802 29.5C16.7802 29.8765 16.6407 30.24 16.3878 30.5229L14.3841 32.7546C14.1665 33.0018 14.0341 33.3104 14.0057 33.636C13.9774 33.9617 14.0546 34.2878 14.2263 34.5678L17.3817 39.9301C17.5475 40.2129 17.8 40.4371 18.1031 40.5706C18.4063 40.7042 18.7446 40.7404 19.0699 40.674L22.0359 40.0851C22.4133 40.0085 22.8063 40.0702 23.1405 40.2586C23.4748 40.4471 23.7272 40.7492 23.8503 41.1079L24.8127 43.944C24.9225 44.2648 25.1361 44.5415 25.421 44.7318C25.7059 44.9221 26.0463 45.0155 26.3904 44.9979H32.7012C33.0319 44.9987 33.3546 44.8974 33.6236 44.7083C33.8925 44.5192 34.0942 44.2519 34.2 43.944L35.1624 41.1079C35.2855 40.7492 35.5379 40.4471 35.8722 40.2586C36.2064 40.0702 36.5993 40.0085 36.9767 40.0851L39.9428 40.674C40.2681 40.7404 40.6064 40.7042 40.9096 40.5706C41.2127 40.4371 41.4652 40.2129 41.631 39.9301L44.7864 34.5678C44.9539 34.2847 45.0258 33.9567 44.9918 33.631C44.9578 33.3052 44.8196 32.9984 44.597 32.7546L42.4671 30.5229ZM40.1164 32.5996L41.3785 33.9944L39.3591 37.4349L37.4974 37.063C36.3611 36.8348 35.1791 37.0244 34.1757 37.5958C33.1723 38.1672 32.4174 39.0805 32.0543 40.1625L31.4548 41.8983H27.4159L26.8479 40.1316C26.4848 39.0496 25.7299 38.1362 24.7266 37.5648C23.7232 36.9934 22.5411 36.8038 21.4049 37.032L19.5432 37.4039L17.4922 33.9789L18.7543 32.5841C19.5305 31.7317 19.9596 30.6281 19.9596 29.4845C19.9596 28.3409 19.5305 27.2373 18.7543 26.3849L17.4922 24.9901L19.5116 21.5806L21.3733 21.9525C22.5096 22.1807 23.6916 21.9911 24.695 21.4197C25.6984 20.8483 26.4533 19.9349 26.8164 18.8529L27.4159 17.1017H31.4548L32.0543 18.8684C32.4174 19.9504 33.1723 20.8638 34.1757 21.4352C35.1791 22.0066 36.3611 22.1962 37.4974 21.968L39.3591 21.5961L41.3785 25.0366L40.1164 26.4314C39.3489 27.2819 38.9252 28.379 38.9252 29.5155C38.9252 30.652 39.3489 31.7491 40.1164 32.5996ZM29.4353 23.3008C28.1872 23.3008 26.9671 23.6644 25.9293 24.3456C24.8914 25.0268 24.0826 25.9949 23.6049 27.1277C23.1273 28.2604 23.0023 29.5069 23.2458 30.7094C23.4893 31.9119 24.0904 33.0165 24.9729 33.8835C25.8555 34.7504 26.98 35.3408 28.2042 35.58C29.4283 35.8192 30.6972 35.6965 31.8504 35.2273C33.0035 34.7581 33.9891 33.9635 34.6826 32.9441C35.376 31.9246 35.7461 30.7261 35.7461 29.5C35.7461 27.8559 35.0813 26.2791 33.8978 25.1165C32.7142 23.954 31.1091 23.3008 29.4353 23.3008ZM29.4353 32.5996C28.8113 32.5996 28.2012 32.4178 27.6823 32.0772C27.1634 31.7366 26.759 31.2525 26.5201 30.6862C26.2813 30.1198 26.2188 29.4966 26.3406 28.8953C26.4623 28.294 26.7629 27.7418 27.2041 27.3083C27.6454 26.8748 28.2077 26.5796 28.8198 26.46C29.4318 26.3404 30.0663 26.4018 30.6429 26.6364C31.2194 26.871 31.7122 27.2682 32.059 27.778C32.4057 28.2877 32.5907 28.887 32.5907 29.5C32.5907 30.3221 32.2583 31.1104 31.6665 31.6917C31.0748 32.273 30.2722 32.5996 29.4353 32.5996Z" fill="#696A6F" stroke="#696A6F" stroke-width="2" mask="url(#path-2-inside-1_582_11451)"/>
</svg>
