<svg width="25" height="25" viewBox="0 0 25 25" fill="none" xmlns="http://www.w3.org/2000/svg">
<path d="M2.71429 10.4286H4.42857C4.6559 10.4286 4.87392 10.5189 5.03466 10.6796C5.19541 10.8404 5.28571 11.0584 5.28571 11.2857V15.5714C5.28571 15.7988 5.19541 16.0168 5.03466 16.1775C4.87392 16.3383 4.6559 16.4286 4.42857 16.4286H2.71429C2.25963 16.4286 1.82359 16.248 1.5021 15.9265C1.18061 15.605 1 15.169 1 14.7143V12.1429C1 11.6882 1.18061 11.2522 1.5021 10.9307C1.82359 10.6092 2.25963 10.4286 2.71429 10.4286V10.4286Z" stroke="#000001" stroke-width="2" stroke-linecap="round" stroke-linejoin="round"/>
<path d="M21.5714 16.4286H19.8571C19.6297 16.4286 19.4117 16.3383 19.251 16.1775C19.0902 16.0168 18.9999 15.7988 18.9999 15.5714V11.2857C18.9999 11.0584 19.0902 10.8404 19.251 10.6796C19.4117 10.5189 19.6297 10.4286 19.8571 10.4286H21.5714C22.026 10.4286 22.4621 10.6092 22.7835 10.9307C23.105 11.2522 23.2856 11.6882 23.2856 12.1429V14.7143C23.2856 15.169 23.105 15.605 22.7835 15.9265C22.4621 16.248 22.026 16.4286 21.5714 16.4286V16.4286Z" stroke="#000001" stroke-width="2" stroke-linecap="round" stroke-linejoin="round"/>
<path d="M16.4285 21.1429C17.3378 21.1429 18.2099 20.7817 18.8528 20.1387C19.4958 19.4957 19.857 18.6236 19.857 17.7143V16.4286" stroke="#000001" stroke-width="2" stroke-linecap="round" stroke-linejoin="round"/>
<path d="M14.2858 19C14.8541 19 15.3992 19.2258 15.801 19.6276C16.2029 20.0295 16.4287 20.5745 16.4287 21.1429C16.4287 21.7112 16.2029 22.2562 15.801 22.6581C15.3992 23.0599 14.8541 23.2857 14.2858 23.2857H11.7144C11.1461 23.2857 10.601 23.0599 10.1992 22.6581C9.7973 22.2562 9.57153 21.7112 9.57153 21.1429C9.57153 20.5745 9.7973 20.0295 10.1992 19.6276C10.601 19.2258 11.1461 19 11.7144 19H14.2858Z" stroke="#000001" stroke-width="2" stroke-linecap="round" stroke-linejoin="round"/>
<path d="M4.42847 10.4286V8.71429C4.42847 6.66833 5.24122 4.70617 6.68793 3.25946C8.13464 1.81275 10.0968 1 12.1428 1C14.1887 1 16.1509 1.81275 17.5976 3.25946C19.0443 4.70617 19.857 6.66833 19.857 8.71429V10.4286" stroke="#000001" stroke-width="2" stroke-linecap="round" stroke-linejoin="round"/>
</svg>
